<svg width="9" height="15" viewBox="0 0 9 15" fill="none" xmlns="http://www.w3.org/2000/svg">
<path d="M3.76222 10.5573C2.60029 10.4361 1.55264 10.15 0.655689 9.44843C0.544394 9.36116 0.429488 9.27702 0.327926 9.17954C-0.0646686 8.80248 -0.104226 8.37064 0.206427 7.92562C0.472185 7.5448 0.918308 7.44292 1.38201 7.66159C1.4718 7.70397 1.55735 7.75687 1.63929 7.8137C3.31092 8.96228 5.6073 8.99399 7.28521 7.86534C7.45144 7.73788 7.62914 7.63396 7.83509 7.5809C8.23553 7.47808 8.60898 7.62517 8.82388 7.97554C9.06938 8.37567 9.06625 8.76622 8.76375 9.07687C8.29974 9.55314 7.74169 9.8977 7.12164 10.1382C6.53534 10.3655 5.89316 10.4799 5.25756 10.5559C5.35348 10.6603 5.39868 10.7116 5.45865 10.7719C6.3217 11.639 7.18851 12.5025 8.04873 13.3723C8.34181 13.6687 8.40303 14.0362 8.24166 14.3809C8.06522 14.7576 7.67027 15.0055 7.28301 14.979C7.03766 14.962 6.84631 14.8399 6.6763 14.6686C6.02501 14.0133 5.36148 13.37 4.72338 12.7022C4.53768 12.508 4.44836 12.5448 4.28448 12.7134C3.62926 13.3879 2.96338 14.052 2.29356 14.7124C1.9928 15.009 1.6349 15.0623 1.2861 14.893C0.915325 14.7132 0.679392 14.3347 0.697601 13.9544C0.710159 13.6971 0.836681 13.5006 1.01328 13.3243C1.86738 12.4715 2.71912 11.6164 3.57118 10.7622C3.62754 10.7053 3.68012 10.6451 3.76222 10.5573Z" fill="white"/>
<path d="M4.47003 7.58639C2.39717 7.57933 0.69745 5.86092 0.709537 3.78478C0.721467 1.68571 2.42229 -0.00585419 4.51555 -4.61231e-05C6.61305 0.00560497 8.2966 1.7215 8.28608 3.84238C8.27541 5.9143 6.56391 7.59361 4.47003 7.58639ZM6.35388 3.7898C6.35027 2.75894 5.52929 1.93828 4.50048 1.93734C3.46303 1.93624 2.63468 2.77182 2.64268 3.81209C2.65037 4.83902 3.47842 5.65387 4.51005 5.65011C5.53855 5.6465 6.35733 4.8205 6.35388 3.7898Z" fill="white"/>
</svg>
