<svg width="15" height="13" viewBox="0 0 15 13" fill="none" xmlns="http://www.w3.org/2000/svg">
<path d="M14.9825 1.84618C14.961 1.82083 14.9255 1.81223 14.8953 1.82605C14.4468 2.025 13.975 2.16803 13.4891 2.25253C14.005 1.86446 14.3894 1.32706 14.5865 0.71085C14.596 0.681353 14.5862 0.649091 14.562 0.629887C14.5378 0.610684 14.5041 0.608225 14.4776 0.624049C13.8965 0.968642 13.2673 1.21153 12.6063 1.34627C12.0207 0.738504 11.2029 0.390839 10.3566 0.390839C8.6353 0.390839 7.23511 1.79103 7.23511 3.51215C7.23511 3.72031 7.25524 3.92649 7.29518 4.12667C4.91115 3.97949 2.68197 2.83494 1.16626 0.975863C1.15074 0.956813 1.12723 0.946212 1.10265 0.94867C1.07823 0.950514 1.05641 0.96434 1.04412 0.985388C0.767585 1.4598 0.621483 2.00257 0.621483 2.55472C0.621483 3.51168 1.05626 4.40643 1.7966 4.99683C1.41544 4.95105 1.0432 4.83106 0.707516 4.64471C0.684932 4.63196 0.656818 4.63211 0.634234 4.64517C0.61165 4.65807 0.597363 4.68204 0.596748 4.70816L0.596441 4.7481C0.596441 6.12248 1.50209 7.32924 2.79059 7.72991C2.45122 7.7846 2.0991 7.78092 1.75297 7.71486C1.72747 7.71009 1.70074 7.71885 1.68322 7.73851C1.66586 7.75818 1.66002 7.78568 1.66801 7.81057C2.05439 9.01656 3.12796 9.8623 4.37759 9.96769C3.33521 10.7314 2.10309 11.1337 0.80123 11.1337C0.561413 11.1337 0.319906 11.1195 0.0833158 11.0916C0.0495172 11.0878 0.0160258 11.1079 0.00434986 11.1404C-0.00732605 11.1731 0.00511801 11.2096 0.0343078 11.2282C1.4431 12.1317 3.07204 12.6091 4.74523 12.6091C10.2183 12.6091 13.4888 8.1633 13.4888 3.86534C13.4888 3.74566 13.4865 3.6266 13.4817 3.50784C14.0721 3.07599 14.5789 2.54735 14.9876 1.93544C15.0059 1.90809 15.0039 1.87168 14.9825 1.84618Z" fill="white"/>
</svg>
