<svg width="16" height="10" viewBox="0 0 16 10" fill="none" xmlns="http://www.w3.org/2000/svg">
<path d="M15.3372 7.33459C14.8608 6.76319 14.3002 6.27554 13.7698 5.7577C13.2912 5.29094 13.2611 5.02016 13.6458 4.48144C14.0656 3.89346 14.5171 3.32804 14.9408 2.74272C15.3362 2.1957 15.7405 1.65017 15.9486 0.995211C16.0806 0.578522 15.9638 0.39447 15.5365 0.321512C15.4629 0.308744 15.3868 0.308081 15.3118 0.308081L12.7767 0.305096C12.4645 0.300454 12.2919 0.436586 12.1815 0.713329C12.0324 1.0874 11.8787 1.46115 11.7011 1.82212C11.2982 2.64058 10.8482 3.43167 10.2172 4.10156C10.0781 4.2493 9.92424 4.436 9.69177 4.35907C9.40094 4.25295 9.31521 3.77375 9.32002 3.61175L9.31753 0.685638C9.26115 0.267623 9.16846 0.0812485 8.75343 0L6.11999 0.000497483C5.76846 0.000497483 5.5922 0.136298 5.4045 0.356167C5.29623 0.48318 5.26356 0.565589 5.48608 0.607706C5.92317 0.690612 6.1694 0.97349 6.23473 1.41173C6.33952 2.11196 6.33223 2.81501 6.27187 3.51806C6.25413 3.72334 6.21881 3.92812 6.1374 4.1198C6.01005 4.42108 5.80444 4.48243 5.53434 4.29705C5.28976 4.12925 5.11798 3.89247 4.94984 3.65469C4.31826 2.76228 3.81435 1.7999 3.40347 0.788608C3.28475 0.496445 3.07997 0.319356 2.77039 0.314548C2.00981 0.302443 1.24906 0.300454 0.48847 0.315211C0.0308252 0.323833 -0.105639 0.546023 0.0807351 0.960888C0.909138 2.80357 1.83123 4.59502 3.03487 6.22695C3.65285 7.06448 4.36237 7.80384 5.27898 8.32781C6.3178 8.92175 7.43605 9.1005 8.61382 9.04545C9.16531 9.01958 9.33096 8.87615 9.3565 8.32648C9.37374 7.95042 9.41636 7.57651 9.6019 7.23858C9.78396 6.90695 10.0597 6.84378 10.3776 7.05005C10.5366 7.15335 10.6706 7.28484 10.7971 7.42346C11.1075 7.76305 11.4068 8.11291 11.729 8.44106C12.133 8.85227 12.6117 9.09519 13.2136 9.04561L15.5437 9.04611C15.9191 9.02157 16.1137 8.56127 15.8982 8.14226C15.7468 7.84877 15.5481 7.58745 15.3372 7.33459Z" fill="white"/>
</svg>
